<?xml version="1.0" encoding="UTF-8"?>
<svg id="Warstwa_1" xmlns="http://www.w3.org/2000/svg" version="1.1" viewBox="0 0 523.05 317.42">
  <!-- Generator: Adobe Illustrator 30.5.1, SVG Export Plug-In . SVG Version: 2.1.4 Build 3)  -->
  <defs>
    <style>
      .st0 {
        fill: #27b89d;
      }
    </style>
  </defs>
  <path class="st0" d="M430.38,49.86l-2.77-11.16-11.41,1.44c-58.45,7.4-109.99,37.07-146.13,79.99,0,0,0,0,0,0-10.55,12.53-19.78,26.18-27.48,40.75h0c-11.8,22.32-20.06,46.75-23.91,72.54-60.82-18.42-105.21-74.99-105.21-141.74,0-8.07.65-16.12,1.95-24.04,50.54,9.48,94.46,37.85,124.36,77.28,4.67-7.75,9.78-15.21,15.27-22.37-33.17-40.52-79.86-69.93-133.3-80.03-6.01-1.14-26.29-3.83-26.29-3.83l-2.78,11.18c-3.36,13.62-5.07,27.69-5.07,41.82,0,95.91,78.02,173.93,173.93,173.93s173.93-78.02,173.93-173.93c0-14.17-1.71-28.25-5.08-41.83ZM244.04,238.73c2.91-20.45,8.89-39.97,17.49-58.06l15.21-26.64c29.83-44.15,76.55-76.18,130.91-86.37,1.29,7.91,1.94,15.95,1.94,24.03,0,66.75-44.4,123.32-105.21,141.74,0,0-28.7,11.24-60.34,5.29Z"/>
  <circle class="st0" cx="261.53" cy="46.85" r="46.85"/>
  <path class="st0" d="M261.53,302.23c88.47,0,175.74,5.17,261.53,15.19-82.18-27.45-170.11-42.35-261.53-42.35S82.18,289.97,0,317.42c85.79-10.01,173.05-15.19,261.53-15.19Z"/>
</svg>