<?xml version="1.0"?>
<svg id="_Слой_1" data-name="Слой_1" xmlns="http://www.w3.org/2000/svg" version="1.1" viewBox="0 0 296.51 236.39">
  
  <defs>
    
  </defs>
  <g>
    <g>
      <polygon fill="#FFFFFF" points="4.26 218.65 9.51 218.65 9.51 232.37 12.16 232.37 12.16 218.65 17.42 218.65 17.42 216.23 4.26 216.23 4.26 218.65"></polygon>
      <polygon fill="#FFFFFF" points="28.58 225.29 36 225.29 36 222.97 28.58 222.97 28.58 218.65 36.67 218.65 36.67 216.23 28.58 216.23 27.75 216.23 25.92 216.23 25.92 232.37 27.75 232.37 28.58 232.37 36.78 232.37 36.78 229.95 28.58 229.95 28.58 225.29"></polygon>
      <path fill="#FFFFFF" d="M55.56,229.62c-.68.3-1.52.45-2.5.45-.8,0-1.53-.14-2.19-.41-.66-.28-1.24-.67-1.72-1.19-.49-.51-.86-1.13-1.12-1.83-.26-.71-.39-1.48-.39-2.33s.13-1.62.39-2.33c.26-.71.63-1.32,1.12-1.83.48-.52,1.06-.91,1.72-1.19.66-.28,1.39-.41,2.19-.41.91,0,1.7.15,2.39.44.68.29,1.26.7,1.74,1.22l1.8-1.8c-.74-.74-1.58-1.32-2.54-1.75-.95-.43-2.08-.65-3.39-.65-1.17,0-2.25.22-3.24.65-.99.43-1.85,1.02-2.59,1.77-.74.75-1.31,1.63-1.71,2.64-.4,1.01-.6,2.09-.6,3.24s.2,2.23.6,3.24c.4,1.01.97,1.89,1.71,2.65s1.6,1.35,2.59,1.78c.99.42,2.07.63,3.24.63,1.29,0,2.44-.22,3.43-.65,1-.43,1.87-1.02,2.6-1.78l-1.8-1.8c-.48.52-1.06.93-1.74,1.23Z"></path>
      <polygon fill="#FFFFFF" points="77.96 222.8 70.35 222.8 70.35 216.23 67.7 216.23 67.7 232.37 70.35 232.37 70.35 225.23 77.96 225.23 77.96 232.37 80.61 232.37 80.61 216.23 77.96 216.23 77.96 222.8"></polygon>
      <polygon fill="#FFFFFF" points="101.03 227.37 92.5 216.23 90.66 216.23 90.66 232.37 93.31 232.37 93.31 221.24 101.84 232.37 103.68 232.37 103.68 216.23 101.03 216.23 101.03 227.37"></polygon>
      <path fill="#FFFFFF" d="M126.9,218.41c-.75-.76-1.63-1.35-2.62-1.77-.99-.42-2.06-.63-3.22-.63s-2.23.21-3.22.63c-.99.42-1.86,1.01-2.61,1.77-.75.76-1.33,1.64-1.75,2.64-.42,1-.63,2.07-.63,3.23s.21,2.23.63,3.24c.42,1.01,1.01,1.89,1.76,2.65s1.63,1.36,2.63,1.79c1,.43,2.07.65,3.23.65s2.2-.22,3.19-.65c.99-.43,1.86-1.02,2.6-1.78.75-.75,1.33-1.63,1.75-2.64.42-1.01.63-2.09.63-3.24s-.21-2.23-.63-3.24c-.42-1.01-1.01-1.89-1.76-2.65ZM125.87,227.29c-.47.87-1.12,1.55-1.94,2.04-.82.49-1.78.74-2.87.74-.8,0-1.54-.14-2.21-.43-.68-.28-1.26-.68-1.74-1.19-.49-.51-.86-1.12-1.13-1.83s-.4-1.49-.4-2.34c0-1.14.23-2.14.7-3,.47-.86,1.11-1.53,1.93-2.02.82-.48,1.77-.72,2.85-.72.81,0,1.56.14,2.23.41.67.28,1.25.67,1.74,1.19.49.51.87,1.12,1.14,1.82.27.7.41,1.47.41,2.32,0,1.14-.24,2.14-.7,3.01Z"></path>
      <polygon fill="#FFFFFF" points="141.13 216.23 138.47 216.23 138.47 232.37 140.3 232.37 141.13 232.37 148.73 232.37 148.73 229.95 141.13 229.95 141.13 216.23"></polygon>
      <path fill="#FFFFFF" d="M170.05,218.41c-.75-.76-1.63-1.35-2.62-1.77-.99-.42-2.06-.63-3.22-.63s-2.23.21-3.22.63c-.99.42-1.86,1.01-2.61,1.77-.75.76-1.33,1.64-1.75,2.64-.42,1-.63,2.07-.63,3.23s.21,2.23.63,3.24c.42,1.01,1.01,1.89,1.76,2.65.75.76,1.63,1.36,2.63,1.79,1,.43,2.07.65,3.23.65s2.2-.22,3.19-.65c.99-.43,1.86-1.02,2.6-1.78.75-.75,1.33-1.63,1.75-2.64.42-1.01.63-2.09.63-3.24s-.21-2.23-.63-3.24c-.42-1.01-1.01-1.89-1.76-2.65ZM169.02,227.29c-.47.87-1.12,1.55-1.94,2.04-.82.49-1.78.74-2.87.74-.8,0-1.54-.14-2.21-.43-.68-.28-1.26-.68-1.74-1.19-.49-.51-.86-1.12-1.13-1.83s-.4-1.49-.4-2.34c0-1.14.23-2.14.7-3,.47-.86,1.11-1.53,1.93-2.02.82-.48,1.77-.72,2.85-.72.81,0,1.56.14,2.23.41.67.28,1.25.67,1.74,1.19.49.51.87,1.12,1.14,1.82.27.7.41,1.47.41,2.32,0,1.14-.24,2.14-.7,3.01Z"></path>
      <path fill="#FFFFFF" d="M188.72,226.05h5.12c-.1.62-.25,1.19-.5,1.67-.41.78-1.01,1.36-1.79,1.75s-1.7.59-2.78.59c-1.01,0-1.92-.24-2.72-.74-.8-.49-1.43-1.17-1.9-2.04-.47-.87-.7-1.87-.7-3.01s.23-2.14.69-3c.46-.86,1.11-1.53,1.95-2.02.84-.48,1.81-.72,2.92-.72.92,0,1.78.18,2.58.54.8.36,1.44.88,1.92,1.56l1.8-1.8c-.74-.91-1.65-1.61-2.75-2.1-1.09-.49-2.28-.74-3.55-.74-1.17,0-2.26.21-3.26.63-1.01.42-1.89,1.01-2.63,1.77-.75.76-1.33,1.64-1.75,2.64-.42,1-.63,2.07-.63,3.23s.21,2.23.63,3.24c.42,1.01,1,1.89,1.74,2.65.74.76,1.6,1.36,2.58,1.79.98.43,2.03.65,3.14.65,1.52,0,2.87-.32,4.06-.95,1.18-.63,2.11-1.58,2.8-2.86s1.03-2.87,1.03-4.8v-.37h-7.98v2.42Z"></path>
      <rect fill="#FFFFFF" x="205.74" y="216.23" width="2.65" height="16.14"></rect>
      <polygon fill="#FFFFFF" points="221.08 225.29 228.51 225.29 228.51 222.97 221.08 222.97 221.08 218.65 229.18 218.65 229.18 216.23 221.08 216.23 220.25 216.23 218.43 216.23 218.43 232.37 220.25 232.37 221.08 232.37 229.29 232.37 229.29 229.95 221.08 229.95 221.08 225.29"></polygon>
      <path fill="#FFFFFF" d="M248.33,225.75c-.28-.57-.64-1.03-1.1-1.39-.45-.36-.95-.66-1.5-.89-.54-.23-1.09-.44-1.64-.62-.54-.19-1.04-.38-1.5-.59-.45-.21-.82-.46-1.09-.76s-.42-.69-.42-1.19c0-.58.23-1.04.68-1.36.46-.32,1.08-.49,1.88-.49.65,0,1.22.13,1.72.38.5.25.98.64,1.44,1.16l1.8-1.8c-.52-.65-1.2-1.18-2.04-1.59s-1.79-.62-2.84-.62c-.98,0-1.88.18-2.68.53-.8.35-1.43.86-1.9,1.53-.47.67-.7,1.48-.7,2.43,0,.83.14,1.51.42,2.05.28.54.64.98,1.09,1.31.46.34.95.62,1.5.84.55.22,1.09.42,1.64.6.55.18,1.04.38,1.5.6.45.22.82.5,1.09.84.28.34.42.78.42,1.31,0,.65-.26,1.15-.8,1.52-.53.37-1.24.55-2.13.55-.95,0-1.74-.18-2.35-.54-.62-.36-1.14-.86-1.59-1.51l-1.8,1.8c.71.89,1.51,1.57,2.4,2.03.89.46,1.97.69,3.25.69,1.74,0,3.12-.42,4.14-1.27,1.02-.85,1.53-1.99,1.53-3.43,0-.86-.14-1.58-.41-2.15Z"></path>
    </g>
    <g>
      <polygon fill="#FFFFFF" points="39.57 170.61 17.03 170.61 17.03 148.38 4.26 148.38 4.26 205.44 17.03 205.44 17.03 181.68 39.57 181.68 39.57 205.44 52.42 205.44 52.42 148.38 39.57 148.38 39.57 170.61"></polygon>
      <path fill="#FFFFFF" d="M91.18,167.78c-2.97-1.67-6.41-2.51-10.35-2.51s-7.57.89-10.75,2.67c-3.18,1.78-5.69,4.22-7.52,7.32-1.83,3.1-2.75,6.59-2.75,10.47s.94,7.54,2.83,10.67c1.89,3.13,4.47,5.57,7.76,7.32,3.28,1.75,7.06,2.63,11.32,2.63,3.34,0,6.38-.55,9.13-1.66,2.75-1.1,5.09-2.81,7.03-5.13l-6.87-6.79c-1.19,1.35-2.56,2.36-4.12,3.03-1.56.67-3.29,1.01-5.17,1.01-2.1,0-3.92-.45-5.46-1.33-1.54-.89-2.72-2.17-3.56-3.84-.25-.5-.39-1.09-.57-1.64l28.01-.13c.27-.97.44-1.84.53-2.63.08-.78.12-1.55.12-2.31,0-3.82-.86-7.22-2.59-10.18-1.73-2.96-4.07-5.28-7.03-6.95ZM75.94,176.1c1.43-.92,3.11-1.38,5.05-1.38,1.78,0,3.3.41,4.57,1.21,1.27.81,2.22,1.95,2.87,3.44.25.57.42,1.25.58,1.93l-16.87.1c.16-.51.28-1.05.5-1.5.78-1.62,1.88-2.88,3.31-3.8Z"></path>
      <path fill="#FFFFFF" d="M137.47,169.53c-1.07-1.03-2.26-1.96-3.68-2.64-2.13-1.02-4.51-1.54-7.15-1.54-3.61,0-6.83.88-9.66,2.63-2.83,1.75-5.07,4.17-6.71,7.27s-2.46,6.61-2.46,10.55.82,7.42,2.46,10.47c1.64,3.05,3.89,5.47,6.75,7.27,2.85,1.81,6.06,2.71,9.61,2.71,2.69,0,5.11-.51,7.24-1.54,1.39-.67,2.55-1.57,3.6-2.58v3.3h12.21v-39.28h-12.21v3.37ZM135.57,192.43c-1.59,1.72-3.71,2.59-6.35,2.59-1.67,0-3.17-.39-4.49-1.17-1.32-.78-2.37-1.87-3.15-3.27-.78-1.4-1.17-2.99-1.17-4.77s.39-3.37,1.17-4.77c.78-1.4,1.83-2.49,3.15-3.27,1.32-.78,2.81-1.17,4.49-1.17s3.26.39,4.61,1.17c1.34.78,2.37,1.86,3.07,3.23.7,1.37,1.05,2.95,1.05,4.73,0,2.75-.8,4.99-2.38,6.71Z"></path>
      <rect fill="#FFFFFF" x="157.88" y="146.77" width="12.44" height="58.67"></rect>
      <polygon fill="#FFFFFF" points="196.58 149.92 184.14 149.92 184.14 166.16 175.33 166.16 175.33 176.75 184.14 176.75 184.14 205.44 196.58 205.44 196.58 176.75 205.47 176.75 205.47 166.16 196.58 166.16 196.58 149.92"></polygon>
      <path fill="#FFFFFF" d="M241.38,167.25c-2.32-1.27-5.01-1.9-8.08-1.9s-5.61.63-7.92,1.9c-1,.54-1.86,1.23-2.67,1.97v-22.46h-12.44v58.67h12.44v-22.39c0-1.35.3-2.53.89-3.56.59-1.02,1.4-1.82,2.42-2.38,1.02-.57,2.18-.85,3.47-.85,1.94,0,3.56.63,4.85,1.9,1.29,1.27,1.94,2.9,1.94,4.89v22.39h12.45v-25.14c0-2.96-.65-5.56-1.94-7.8-1.3-2.24-3.1-3.99-5.42-5.25Z"></path>
      <polygon fill="#FFFFFF" points="279.81 166.16 271.45 186.95 263.08 166.16 250.64 166.16 265.22 202.41 256.41 224.3 268.86 224.3 292.26 166.16 279.81 166.16"></polygon>
    </g>
  </g>
  <g>
    <path fill="#FFFFFF" d="M213.73,23.12l-1.07-4.33-4.43.56c-22.66,2.87-42.65,14.37-56.66,31.02,0,0,0,0,0,0-4.09,4.86-7.67,10.15-10.66,15.8h0c-4.58,8.66-7.78,18.13-9.27,28.13-23.58-7.14-40.8-29.08-40.8-54.96,0-3.13.25-6.25.75-9.32,19.6,3.68,36.63,14.68,48.22,29.97,1.81-3.01,3.79-5.9,5.92-8.67-12.86-15.71-30.97-27.12-51.69-31.03-2.33-.44-10.2-1.49-10.2-1.49l-1.08,4.33c-1.3,5.28-1.96,10.74-1.96,16.22,0,37.19,30.25,67.44,67.44,67.44s67.44-30.25,67.44-67.44c0-5.5-.66-10.95-1.97-16.22ZM141.48,96.36c1.13-7.93,3.45-15.5,6.78-22.51l5.9-10.33c11.57-17.12,29.68-29.54,50.76-33.49.5,3.07.75,6.19.75,9.32,0,25.88-17.21,47.82-40.8,54.96,0,0-11.13,4.36-23.4,2.05Z"></path>
    <circle fill="#FFFFFF" cx="148.26" cy="21.96" r="18.16"></circle>
    <path fill="#FFFFFF" d="M148.26,120.98c34.31,0,68.14,2.01,101.41,5.89-31.87-10.64-65.96-16.42-101.41-16.42s-69.54,5.78-101.41,16.42c33.26-3.88,67.1-5.89,101.41-5.89Z"></path>
  </g>
</svg>