<?xml version="1.0"?>
<svg id="_Слой_1" data-name="Слой_1" xmlns="http://www.w3.org/2000/svg" version="1.1" viewBox="0 0 445.06 118.2">
  
  <defs>
    
  </defs>
  <g>
    <g>
      <polygon fill="#1A1A1A" points="189.04 83.79 193.52 83.79 193.52 95.48 195.78 95.48 195.78 83.79 200.27 83.79 200.27 81.73 189.04 81.73 189.04 83.79"></polygon>
      <polygon fill="#1A1A1A" points="209.77 89.45 216.1 89.45 216.1 87.47 209.77 87.47 209.77 83.79 216.67 83.79 216.67 81.73 209.77 81.73 209.07 81.73 207.51 81.73 207.51 95.48 209.07 95.48 209.77 95.48 216.77 95.48 216.77 93.42 209.77 93.42 209.77 89.45"></polygon>
      <path fill="#1A1A1A" d="M232.77,93.14c-.58.26-1.29.38-2.13.38-.68,0-1.3-.12-1.87-.35-.56-.24-1.05-.57-1.46-1.01-.41-.44-.73-.96-.95-1.56-.22-.6-.33-1.26-.33-1.98s.11-1.38.33-1.98c.22-.6.54-1.12.95-1.56.41-.44.9-.78,1.46-1.01.56-.24,1.19-.35,1.87-.35.77,0,1.45.12,2.03.37.58.25,1.08.6,1.48,1.04l1.53-1.53c-.63-.63-1.35-1.13-2.16-1.49-.81-.37-1.78-.55-2.89-.55-1,0-1.92.18-2.76.55-.84.37-1.58.87-2.21,1.51-.63.64-1.11,1.39-1.45,2.25-.34.86-.51,1.78-.51,2.76s.17,1.9.51,2.76c.34.86.82,1.61,1.45,2.26.63.65,1.37,1.15,2.21,1.51.85.36,1.77.54,2.76.54,1.1,0,2.08-.18,2.93-.55.85-.37,1.59-.87,2.22-1.51l-1.53-1.53c-.41.44-.9.8-1.48,1.05Z"></path>
      <polygon fill="#1A1A1A" points="251.86 87.33 245.38 87.33 245.38 81.73 243.12 81.73 243.12 95.48 245.38 95.48 245.38 89.39 251.86 89.39 251.86 95.48 254.13 95.48 254.13 81.73 251.86 81.73 251.86 87.33"></polygon>
      <polygon fill="#1A1A1A" points="271.53 91.22 264.26 81.73 262.68 81.73 262.68 95.48 264.95 95.48 264.95 86 272.22 95.48 273.79 95.48 273.79 81.73 271.53 81.73 271.53 91.22"></polygon>
      <path fill="#1A1A1A" d="M293.57,83.59c-.64-.65-1.39-1.15-2.23-1.51-.84-.36-1.76-.54-2.74-.54s-1.9.18-2.74.54c-.85.36-1.59.86-2.22,1.51-.64.65-1.13,1.4-1.49,2.25-.36.85-.54,1.77-.54,2.75s.18,1.9.54,2.76c.36.86.86,1.61,1.5,2.26.64.65,1.39,1.16,2.24,1.52.85.37,1.77.55,2.75.55s1.88-.18,2.72-.55c.84-.37,1.58-.87,2.22-1.51.64-.64,1.13-1.39,1.49-2.25.36-.86.54-1.78.54-2.76s-.18-1.9-.54-2.76c-.36-.86-.86-1.61-1.5-2.26ZM292.7,91.15c-.4.74-.95,1.32-1.65,1.74-.7.42-1.52.63-2.44.63-.68,0-1.31-.12-1.89-.36-.58-.24-1.07-.58-1.48-1.01-.41-.43-.74-.95-.96-1.56-.23-.61-.34-1.27-.34-1.99,0-.97.2-1.82.6-2.55.4-.73.95-1.31,1.65-1.72.7-.41,1.51-.62,2.43-.62.69,0,1.33.12,1.9.35.57.23,1.06.57,1.48,1.01.42.44.74.96.97,1.55.23.6.35,1.25.35,1.98,0,.97-.2,1.83-.6,2.56Z"></path>
      <polygon fill="#1A1A1A" points="305.7 81.73 303.44 81.73 303.44 95.48 304.99 95.48 305.7 95.48 312.18 95.48 312.18 93.42 305.7 93.42 305.7 81.73"></polygon>
      <path fill="#1A1A1A" d="M330.35,83.59c-.64-.65-1.39-1.15-2.23-1.51-.84-.36-1.76-.54-2.74-.54s-1.9.18-2.74.54c-.85.36-1.59.86-2.22,1.51-.64.65-1.13,1.4-1.49,2.25-.36.85-.54,1.77-.54,2.75s.18,1.9.54,2.76c.36.86.86,1.61,1.5,2.26s1.39,1.16,2.24,1.52c.85.37,1.77.55,2.75.55s1.88-.18,2.72-.55c.84-.37,1.58-.87,2.22-1.51.64-.64,1.13-1.39,1.49-2.25.36-.86.54-1.78.54-2.76s-.18-1.9-.54-2.76c-.36-.86-.86-1.61-1.5-2.26ZM329.48,91.15c-.4.74-.95,1.32-1.65,1.74-.7.42-1.52.63-2.44.63-.68,0-1.31-.12-1.89-.36-.58-.24-1.07-.58-1.48-1.01-.41-.43-.74-.95-.96-1.56s-.34-1.27-.34-1.99c0-.97.2-1.82.6-2.55.4-.73.95-1.31,1.65-1.72.7-.41,1.51-.62,2.43-.62.69,0,1.33.12,1.9.35.57.23,1.06.57,1.48,1.01.42.44.74.96.97,1.55.23.6.35,1.25.35,1.98,0,.97-.2,1.83-.6,2.56Z"></path>
      <path fill="#1A1A1A" d="M346.26,90.1h4.36c-.08.53-.21,1.02-.43,1.42-.35.66-.86,1.16-1.52,1.49-.66.33-1.45.5-2.37.5-.86,0-1.64-.21-2.32-.63-.68-.42-1.22-1-1.62-1.74-.4-.74-.6-1.6-.6-2.56s.2-1.82.59-2.55c.39-.73.95-1.31,1.66-1.72.71-.41,1.54-.62,2.49-.62.79,0,1.52.15,2.2.46.68.31,1.23.75,1.63,1.33l1.53-1.53c-.63-.77-1.41-1.37-2.34-1.79-.93-.42-1.94-.63-3.02-.63-1,0-1.92.18-2.78.54-.86.36-1.61.86-2.24,1.51-.64.65-1.13,1.4-1.49,2.25-.36.85-.54,1.77-.54,2.75s.18,1.9.54,2.76c.36.86.85,1.61,1.48,2.26.63.65,1.36,1.16,2.2,1.52.84.37,1.73.55,2.67.55,1.29,0,2.45-.27,3.46-.81,1.01-.54,1.8-1.35,2.39-2.44.58-1.09.88-2.45.88-4.09v-.31h-6.8v2.06Z"></path>
      <rect fill="#1A1A1A" x="360.77" y="81.73" width="2.26" height="13.76"></rect>
      <polygon fill="#1A1A1A" points="373.85 89.45 380.18 89.45 380.18 87.47 373.85 87.47 373.85 83.79 380.75 83.79 380.75 81.73 373.85 81.73 373.14 81.73 371.59 81.73 371.59 95.48 373.14 95.48 373.85 95.48 380.84 95.48 380.84 93.42 373.85 93.42 373.85 89.45"></polygon>
      <path fill="#1A1A1A" d="M397.07,89.85c-.24-.48-.55-.88-.94-1.19-.38-.31-.81-.56-1.28-.76-.46-.2-.93-.37-1.39-.53-.46-.16-.89-.32-1.28-.5-.38-.18-.7-.39-.93-.65-.23-.26-.36-.59-.36-1.01,0-.5.2-.88.58-1.16.39-.28.92-.41,1.6-.41.55,0,1.04.11,1.46.32.42.22.83.55,1.23.99l1.53-1.53c-.45-.55-1.03-1-1.74-1.36s-1.52-.53-2.42-.53c-.84,0-1.6.15-2.28.45-.68.3-1.22.74-1.62,1.31-.4.57-.6,1.26-.6,2.07,0,.71.12,1.29.36,1.75.23.46.54.83.93,1.12.39.29.81.53,1.28.72.47.19.93.36,1.39.51s.89.32,1.28.51c.38.19.7.43.93.72.24.29.36.66.36,1.12,0,.55-.22.98-.68,1.3-.45.31-1.06.47-1.82.47-.81,0-1.48-.15-2-.46s-.97-.74-1.36-1.29l-1.53,1.53c.6.76,1.28,1.34,2.04,1.73.76.39,1.68.59,2.77.59,1.48,0,2.66-.36,3.53-1.08.87-.72,1.31-1.7,1.31-2.93,0-.73-.12-1.34-.35-1.83Z"></path>
    </g>
    <g>
      <polygon fill="#1A1A1A" points="219.15 42.84 199.93 42.84 199.93 23.9 189.04 23.9 189.04 72.53 199.93 72.53 199.93 52.28 219.15 52.28 219.15 72.53 230.1 72.53 230.1 23.9 219.15 23.9 219.15 42.84"></polygon>
      <path fill="#1A1A1A" d="M263.13,40.43c-2.53-1.42-5.47-2.14-8.82-2.14s-6.45.76-9.16,2.27c-2.71,1.52-4.85,3.59-6.41,6.23-1.56,2.64-2.34,5.61-2.34,8.92s.8,6.43,2.41,9.09c1.61,2.66,3.81,4.74,6.61,6.23,2.8,1.49,6.02,2.24,9.64,2.24,2.84,0,5.44-.47,7.78-1.41,2.34-.94,4.34-2.4,5.99-4.38l-5.85-5.79c-1.01,1.15-2.18,2.01-3.51,2.58-1.33.57-2.8.86-4.41.86-1.79,0-3.34-.38-4.65-1.14-1.31-.76-2.32-1.85-3.03-3.27-.22-.43-.33-.93-.48-1.4l23.87-.12c.23-.83.38-1.57.45-2.24.07-.67.1-1.32.1-1.96,0-3.26-.74-6.15-2.21-8.68-1.47-2.52-3.47-4.5-5.99-5.92ZM250.14,47.53c1.22-.78,2.65-1.17,4.31-1.17,1.51,0,2.81.35,3.89,1.03,1.08.69,1.9,1.67,2.44,2.93.21.49.36,1.06.49,1.65l-14.38.08c.14-.43.23-.89.42-1.28.67-1.38,1.6-2.46,2.82-3.24Z"></path>
      <path fill="#1A1A1A" d="M302.58,41.93c-.91-.88-1.92-1.67-3.14-2.25-1.81-.87-3.85-1.31-6.1-1.31-3.08,0-5.82.75-8.23,2.24-2.41,1.49-4.32,3.56-5.72,6.2-1.4,2.64-2.1,5.64-2.1,8.99s.7,6.33,2.1,8.92c1.4,2.6,3.32,4.66,5.75,6.2,2.43,1.54,5.17,2.31,8.19,2.31,2.3,0,4.35-.44,6.17-1.31,1.19-.57,2.17-1.34,3.06-2.2v2.82h10.4v-33.48h-10.4v2.87ZM300.96,61.44c-1.36,1.47-3.16,2.2-5.41,2.2-1.42,0-2.7-.33-3.82-1-1.13-.67-2.02-1.6-2.69-2.79-.67-1.19-1-2.55-1-4.06s.33-2.87,1-4.07c.67-1.19,1.56-2.12,2.69-2.79,1.12-.67,2.4-1,3.82-1s2.78.33,3.93,1c1.15.67,2.02,1.59,2.62,2.76.59,1.17.89,2.51.89,4.03,0,2.34-.68,4.25-2.03,5.72Z"></path>
      <rect fill="#1A1A1A" x="319.98" y="22.52" width="10.61" height="50.01"></rect>
      <polygon fill="#1A1A1A" points="352.97 25.21 342.36 25.21 342.36 39.05 334.85 39.05 334.85 48.08 342.36 48.08 342.36 72.53 352.97 72.53 352.97 48.08 360.55 48.08 360.55 39.05 352.97 39.05 352.97 25.21"></polygon>
      <path fill="#1A1A1A" d="M391.15,39.98c-1.98-1.08-4.27-1.62-6.89-1.62s-4.78.54-6.75,1.62c-.85.46-1.58,1.05-2.27,1.68v-19.14h-10.61v50.01h10.61v-19.08c0-1.15.25-2.16.76-3.03.5-.87,1.19-1.55,2.07-2.03.87-.48,1.86-.72,2.96-.72,1.65,0,3.03.54,4.13,1.62,1.1,1.08,1.65,2.47,1.65,4.17v19.08h10.61v-21.42c0-2.52-.55-4.74-1.65-6.65-1.1-1.91-2.64-3.4-4.62-4.48Z"></path>
      <polygon fill="#1A1A1A" points="423.9 39.05 416.77 56.77 409.64 39.05 399.04 39.05 411.47 69.95 403.96 88.61 414.57 88.61 434.51 39.05 423.9 39.05"></polygon>
    </g>
  </g>
  <g>
    <path fill="#1A1A1A" d="M156.98,22.07l-.94-3.8-3.88.49c-19.89,2.52-37.42,12.61-49.72,27.22,0,0,0,0,0,0-3.59,4.26-6.73,8.91-9.35,13.87h0c-4.02,7.59-6.82,15.91-8.14,24.68-20.69-6.27-35.8-25.52-35.8-48.23,0-2.75.22-5.48.66-8.18,17.2,3.22,32.14,12.88,42.31,26.29,1.59-2.64,3.33-5.17,5.2-7.61-11.29-13.79-27.17-23.79-45.36-27.23-2.05-.39-8.95-1.3-8.95-1.3l-.95,3.8c-1.14,4.63-1.72,9.42-1.72,14.23,0,32.63,26.55,59.18,59.18,59.18s59.18-26.55,59.18-59.18c0-4.82-.58-9.61-1.73-14.23ZM93.58,86.33c.99-6.96,3.03-13.6,5.95-19.75l5.18-9.06c10.15-15.02,26.05-25.92,44.54-29.39.44,2.69.66,5.43.66,8.18,0,22.71-15.11,41.96-35.8,48.23,0,0-9.77,3.82-20.53,1.8Z"></path>
    <circle fill="#1A1A1A" cx="99.53" cy="21.04" r="15.94"></circle>
    <path fill="#1A1A1A" d="M99.53,107.94c30.1,0,59.79,1.76,88.98,5.17-27.96-9.34-57.88-14.41-88.98-14.41s-61.02,5.07-88.98,14.41c29.19-3.41,58.88-5.17,88.98-5.17Z"></path>
  </g>
</svg>